<?xml version="1.0" encoding="utf-8"?>
<!-- Generator: Adobe Illustrator 27.5.0, SVG Export Plug-In . SVG Version: 6.00 Build 0)  -->
<svg version="1.1" xmlns="http://www.w3.org/2000/svg" xmlns:xlink="http://www.w3.org/1999/xlink" x="0px" y="0px"
	 viewBox="0 0 750 500" style="enable-background:new 0 0 750 500;" xml:space="preserve">
<g id="BACKGROUND">
	<g>
		<rect style="fill:#FFFFFF;" width="750" height="500"/>
	</g>
</g>
<g id="OBJECTS">
	<g>
		<g>
			<g>
				<g>
					<path style="fill:#D4EDE9;" d="M616.479,419.992H128.212c0,0-48.881-192.582,161.921-256.07
						C500.935,100.434,685.06,292.521,616.479,419.992z"/>
				</g>
			</g>
		</g>
		<g>
			<g>
				<g>
					<path style="fill:#F7CF4D;" d="M316.81,356.381h58.89v-36.279h-58.89V356.381z M355.573,80.815
						c-41.853,5.151-81.626,30.563-84.981,100.262l41.497,5.343c0,0,7.703-23.632,20.872-28.092
						c13.169-4.46,28.326,2.997,32.302,14.302c3.976,11.305,4.97,21.99-13.915,34.662c-18.885,12.673-41.248,25.842-34.539,96.66
						h58.89v-15.307c0.719-12.074,3.45-28.047,12.424-35.321c15.405-12.486,49.489-32.954,55.565-68.643
						C456.764,107.881,404.027,74.851,355.573,80.815z"/>
				</g>
			</g>
		</g>
	</g>
	<g>
		<g>
			<g>
				<rect x="612.379" y="253.335" style="fill:#0B4665;" width="4.1" height="166.657"/>
			</g>
		</g>
		<g>
			<g>
				<polygon style="fill:#F8A706;" points="666.175,280.097 616.479,280.097 616.479,253.335 666.175,253.335 674.002,266.716 				
					"/>
			</g>
		</g>
		<g>
			<g>
				<polygon style="fill:#F8A706;" points="674.002,328.054 616.479,328.054 616.479,297.739 674.002,297.739 686.55,312.897 				
					"/>
			</g>
		</g>
		<g>
			<g>
				<polygon style="fill:#F8A706;" points="575.293,308.548 612.379,308.548 612.379,283.762 575.293,283.762 563.925,296.155 				
					"/>
			</g>
		</g>
	</g>
	<g>
		<g>
			<g>
				<path style="fill:#0B4169;" d="M523.732,195.307c-0.272,0-0.541-0.11-0.738-0.325c-0.373-0.408-0.345-1.04,0.063-1.413
					c0.059-0.054,3.2-2.984,6.015-8.015c-3.436-0.554-6.509-1.369-9.126-2.4c-7.362-2.901-11.491-7.492-11.626-12.925
					c-0.259-10.486,6.166-15.413,12.648-15.646c6.721-0.227,14.026,4.354,14.448,13.337c0.295,6.301-1.235,11.74-3.243,16.06
					c20.479,2.345,52.099-4.396,76.322-29.106c0.386-0.395,1.02-0.4,1.414-0.014c0.395,0.386,0.4,1.02,0.014,1.414
					c-24.945,25.446-57.685,32.191-78.688,29.587c-3.007,5.634-6.564,8.941-6.829,9.183
					C524.214,195.22,523.972,195.307,523.732,195.307z M521.466,156.574c-0.142,0-0.285,0.003-0.428,0.007
					c-5.096,0.183-10.961,3.853-10.72,13.597c0.112,4.579,3.792,8.526,10.359,11.114c2.667,1.051,5.824,1.87,9.364,2.405
					c2.041-4.184,3.664-9.525,3.375-15.684C533.065,160.505,527.078,156.574,521.466,156.574z"/>
			</g>
		</g>
		<g>
			<g>
				<path style="fill:#0B4169;" d="M94.62,227.175c-13.52,0-24.691-3.749-29.541-10.872c-3.753-5.511-5.376-15.37,8.209-31.036
					c0.362-0.417,0.992-0.462,1.411-0.1c0.417,0.362,0.462,0.993,0.1,1.411c-10.093,11.639-12.882,21.528-8.067,28.6
					c7.52,11.043,32.944,13.212,56.674,4.838c5.594-1.974,11.659-4.547,17.54-7.596c-2.048-2.222-3.504-4.623-4.359-7.193
					c-1.857-5.582-0.875-11.986,2.92-19.032c3.893-7.229,15.541-14.188,23.969-14.318c4.057-0.091,7.152,1.441,8.837,4.352
					c1.562,2.697,1.622,6.199,0.173,10.127c-2.801,7.593-11.585,17.634-28.095,26.622c2.453,2.134,5.57,4.082,9.339,5.832
					c20.171,9.364,48.248-6.507,48.529-6.669c0.479-0.275,1.091-0.11,1.365,0.37c0.275,0.479,0.109,1.09-0.37,1.365
					c-0.295,0.17-7.357,4.191-17.11,7.08c-9.064,2.686-22.191,4.806-33.256-0.331c-4.229-1.963-7.693-4.184-10.376-6.645
					c-5.362,2.794-11.49,5.471-18.439,7.924C114.001,225.456,103.772,227.175,94.62,227.175z M163.729,173.874
					c-0.074,0-0.147,0.001-0.222,0.001c-7.682,0.119-18.697,6.69-22.239,13.267c-3.522,6.542-4.459,12.414-2.783,17.453
					c0.814,2.445,2.249,4.734,4.296,6.856c12.666-6.828,24.159-15.838,27.829-25.788c1.236-3.351,1.227-6.268-0.027-8.433
					C169.293,175.003,166.987,173.874,163.729,173.874z"/>
			</g>
		</g>
	</g>
	<g>
		<g>
			<g>
				<g>
					<path style="fill:#188991;" d="M547.152,418.75c0,0,7.703,3.727,13.667-7.454c3.727-5.715,4.721-3.23,5.218-15.903
						c0.248-7.454,3.976-11.181,6.461-13.666c2.485-2.485,3.727-9.691,2.733-12.922s-2.92-6.398,3.976-13.293
						c6.895-6.895,10.063-13.977,10.623-21.991c0.559-8.014-3.168-10.995-12.113-3.541c-8.945,7.454-15.095,19.195-16.027,20.313
						c-0.932,1.118-7.454,7.268-7.268,14.909c0.186,7.641-1.305,11.368-2.609,13.045c-1.305,1.677-6.785,2.112-1.902,23.885
						C549.016,406.761,542.307,412.289,547.152,418.75z"/>
				</g>
			</g>
			<g>
				<g>
					<path style="fill:#0B4169;" d="M547.152,418.75c0,0,4.659-10.498,3.168-15.53c-1.491-5.032-7.641-7.641-7.641-7.641
						s-0.373-13.791-2.982-19.009c-2.609-5.218-10.063-12.113-10.809-14.35c-0.745-2.236,0.186-9.132-6.336-14.536
						c-6.523-5.405-11.741-10.436-12.859-12.113c-1.118-1.677-8.386-3.914-5.777,15.654c1.118,2.982,7.454,13.232,9.504,17.518
						c2.05,4.286,2.236,9.132,1.491,13.977c-0.745,4.845,1.677,9.691,6.895,13.045c5.218,3.354,6.336,3.168,7.082,8.386
						C529.634,409.37,537.089,420.302,547.152,418.75z"/>
				</g>
			</g>
			<g>
				<g>
					<path style="fill:#FFFFFF;" d="M544.459,418.705l-25.883-59.342l26.796,58.935c0.114,0.251,0.003,0.548-0.248,0.662
						c-0.251,0.114-0.548,0.003-0.662-0.248C544.461,418.71,544.46,418.706,544.459,418.705z"/>
				</g>
			</g>
			<g>
				<g>
					<path style="fill:#FFFFFF;" d="M550.138,416.608c2.007-6.121,3.987-12.254,5.896-18.405c0.948-3.077,1.895-6.158,2.719-9.26
						c0.808-3.124,1.677-6.231,2.599-9.322c1.843-6.181,3.915-12.298,6.326-18.281c1.251-2.972,2.518-5.942,4.039-8.789
						c1.519-2.839,3.161-5.638,5.253-8.099c-2.06,2.487-3.661,5.303-5.141,8.156c-1.481,2.86-2.708,5.842-3.918,8.824
						c-2.329,6.004-4.318,12.135-6.078,18.328c-0.881,3.097-1.707,6.208-2.473,9.334c-0.791,3.138-1.698,6.23-2.608,9.325
						c-1.832,6.183-3.732,12.342-5.662,18.495c-0.083,0.263-0.363,0.41-0.627,0.327c-0.263-0.082-0.41-0.363-0.328-0.627
						C550.136,416.615,550.138,416.609,550.138,416.608z"/>
				</g>
			</g>
			<g>
				<g>
					<path style="fill:#0B4169;" d="M549.368,401.618c-0.247,0-0.463-0.185-0.495-0.436c-0.021-0.16-2.065-16.277-2.928-35.922
						c-0.796-18.15-0.716-43.115,4.191-58.972c0.081-0.264,0.36-0.415,0.625-0.33c0.264,0.081,0.412,0.361,0.33,0.625
						c-9.317,30.109-1.308,93.831-1.227,94.472c0.035,0.273-0.158,0.524-0.433,0.56
						C549.411,401.617,549.389,401.618,549.368,401.618z"/>
				</g>
			</g>
			<g>
				<g>
					<path style="fill:#0B4169;" d="M550.614,306.436c0,0,2.626-9.69,5.608-12.796c2.982-3.106,6.833-0.871,5.715,5.342
						C560.818,305.194,550.614,306.436,550.614,306.436z"/>
				</g>
			</g>
			<g>
				<g>
					<path style="fill:#0B4169;" d="M547.796,319.627c0,0,6.121-9.463,8.578-9.587c2.457-0.124,4.444,2.236,1.835,6.336
						c-2.609,4.1-11.027,8.203-11.027,8.203L547.796,319.627z"/>
				</g>
			</g>
			<g>
				<g>
					<path style="fill:#0B4169;" d="M546.958,326.834c0,0-5.335-3.625-6.453-6.917c-1.118-3.293-0.745-8.138,1.243-8.138
						s4.657,4.722,5.434,10.747L546.958,326.834z"/>
				</g>
			</g>
			<g>
				<g>
					<path style="fill:#0B4169;" d="M549.334,311.221c0,0-3.863-3.729-3.923-7.891c-0.06-4.162,1.695-7.33,3.923-5.032
						c2.228,2.298,0.39,11.313,0.39,11.313L549.334,311.221z"/>
				</g>
			</g>
			<g>
				<g>
					<path style="fill:#0B4169;" d="M546.219,338.927c0,0,4.289-7.767,5.903-9.817c1.615-2.05,5.715-2.733,4.596,3.852
						c-1.118,6.585-9.135,10.622-10.5,10.56V338.927z"/>
				</g>
			</g>
			<g>
				<g>
					<path style="fill:#0B4169;" d="M546.219,337.931c0,0-1.489-4.41-2.98-5.528c-1.491-1.118-5.715-0.559-4.286,5.218
						c1.429,5.777,6.143,6.585,7.109,5.902c0.966-0.684,0.157-0.001,0.157-0.001V337.931z"/>
				</g>
			</g>
			<g>
				<g>
					<path style="fill:#0B4169;" d="M546.219,359.07c0,0,2.861-10.517,5.345-13.561c2.484-3.044,5.474-3.416,5.346,1.926
						c-0.129,5.342-9.063,11.99-10.652,12.859L546.219,359.07z"/>
				</g>
			</g>
			<g>
				<g>
					<path style="fill:#0B4169;" d="M546.659,369.622c0,0,4.345-7.152,6.581-8.147c2.236-0.994,4.721,5.902,0,9.504
						c-4.721,3.603-6.324,3.051-6.324,3.051L546.659,369.622z"/>
				</g>
			</g>
			<g>
				<g>
					<path style="fill:#0B4169;" d="M546.659,374.334c0,0-5.905-0.498-8.887-4.722c-2.982-4.224-1.574-7.951,0.89-7.765
						C541.126,362.034,544.799,368.122,546.659,374.334z"/>
				</g>
			</g>
			<g>
				<g>
					<path style="fill:#0B4169;" d="M546.062,357.996c0,0-3.031,0.445-7.4-4.219c-4.369-4.664-2.692-9.137,1.284-7.087
						c3.976,2.05,6.273,10.623,6.273,10.623L546.062,357.996z"/>
				</g>
			</g>
			<g style="opacity:0.5;">
				<g>
					<path style="fill:#188991;" d="M572.497,218.722c0,0,5.094,1.491,5.84-1.118c0.745-2.609-0.248-3.479-1.118-4.224
						c-0.87-0.745-5.591-0.87-5.964,1.118C570.883,216.486,572.497,218.722,572.497,218.722z"/>
				</g>
			</g>
			<g style="opacity:0.5;">
				<g>
					<path style="fill:#188991;" d="M555.166,224.313c0,0,8.013-4.605,8.013-11.434c0-6.829-13.418-9.811-16.959-9.997
						c-3.541-0.186-10.063,5.964-8.573,17.704C538.207,224.127,547.898,229.531,555.166,224.313z"/>
				</g>
			</g>
			<g style="opacity:0.5;">
				<g>
					<path style="fill:#188991;" d="M520.938,315.133c0,0,4.348,1.491,5.591-3.354c1.243-4.845-3.478-2.982-4.348-2.609
						C521.311,309.542,517.459,312.897,520.938,315.133z"/>
				</g>
			</g>
			<g style="opacity:0.5;">
				<g>
					<path style="fill:#188991;" d="M509.383,309.418c0,0,8.076,0.496,9.07-7.703c0.994-8.2-5.591-10.436-10.064-10.436
						c-4.473,0-11.803,3.081-8.822,13.095C500.19,307.057,503.047,309.915,509.383,309.418z"/>
				</g>
			</g>
		</g>
		<g>
			<g>
				<g>
					<path style="fill:#188991;" d="M146.103,417.756c0,0,14.327,1.864,17.04-15.282c2.714-17.145,0.291-14.723,2.9-20.5
						c2.609-5.777,5.404-10.995,5.404-21.618c0-10.623,2.423-15.078,4.845-17.789s5.777-9.42,4.845-18.179
						c-0.932-8.759,0.932-18.45,2.795-24.972c1.864-6.523,2.609-14.723,0.932-19.941c-1.677-5.218-9.318-2.423-14.536,5.591
						c-5.218,8.014-13.977,27.581-17.145,32.241c-3.168,4.659-4.845,16.231-3.727,25.261c1.118,9.03,1.328,17.602-2.225,21.143
						c-3.553,3.541-5.416,17.332-2.807,27.209C147.035,400.797,141.071,415.706,146.103,417.756z"/>
				</g>
			</g>
			<g>
				<g>
					<path style="fill:#0B4169;" d="M147.221,417.756c0,0,0.373-12.672-3.106-16.896c-3.479-4.224-0.497-16.152-13.915-33.545
						c-13.418-17.393,2.485-35.532-9.442-50.441s-11.927-21.619-11.927-30.067s-1.242-19.7-4.969-21.528
						c-3.727-1.829-7.703,10.596-6.958,18.796c0.746,8.2-12.921,26.09-7.703,42.241c5.218,16.151,5.964,26.091,5.964,31.06
						c0,4.969,0.248,10.933,3.727,13.914c3.479,2.982,15.157,13.915,8.2,19.382C100.134,396.139,113.8,417.259,147.221,417.756z"/>
				</g>
			</g>
			<g>
				<g>
					<path style="fill:#FFFFFF;" d="M143.195,417.526c-4.711-7.727-9.023-15.657-13.118-23.705
						c-4.079-8.055-7.872-16.252-11.374-24.571c-3.487-8.327-6.554-16.825-9.274-25.428c-2.633-8.634-4.722-17.426-6.19-26.328
						c1.55,8.888,3.719,17.653,6.428,26.253c2.797,8.57,5.937,17.026,9.496,25.308c3.574,8.274,7.435,16.422,11.581,24.423
						c4.158,7.99,8.545,15.88,13.296,23.513l0.006,0.01c0.146,0.234,0.074,0.543-0.16,0.689s-0.543,0.074-0.689-0.16
						L143.195,417.526z"/>
				</g>
			</g>
			<g>
				<g>
					<path style="fill:#FFFFFF;" d="M145.64,417.07c3.045-7.692,5.561-15.631,7.591-23.669c2.107-8.026,3.129-16.29,4.722-24.459
						c1.529-8.174,3.157-16.327,4.833-24.471c1.705-8.137,3.357-16.287,5.308-24.368c-1.87,8.1-3.44,16.266-5.063,24.418
						c-1.594,8.158-3.14,16.326-4.586,24.51c-1.507,8.162-2.448,16.452-4.486,24.548c-1.961,8.1-4.397,16.07-7.394,23.868
						c-0.099,0.258-0.388,0.386-0.646,0.287c-0.258-0.099-0.386-0.388-0.287-0.646l0.002-0.005L145.64,417.07z"/>
				</g>
			</g>
			<g style="opacity:0.5;">
				<g>
					<path style="fill:#188991;" d="M199.775,388.497c0,0,2.423-5.777,0.932-8.014c-1.491-2.236-9.318-0.559-8.945,4.845
						C192.134,390.734,196.793,388.497,199.775,388.497z"/>
				</g>
			</g>
			<g style="opacity:0.5;">
				<g>
					<path style="fill:#188991;" d="M212.261,375.452c0,0,7.641-3.168,5.218-13.977c-2.423-10.809-15.841-5.591-17.704-2.236
						C197.911,362.593,195.302,376.757,212.261,375.452z"/>
				</g>
			</g>
			<g style="opacity:0.5;">
				<g>
					<path style="fill:#188991;" d="M150.203,247.418c0,0,3.913,0.377,2.795-3.164c-1.118-3.541-7.082-2.05-6.895,0
						C146.289,246.304,149.095,247.473,150.203,247.418z"/>
				</g>
			</g>
			<g style="opacity:0.5;">
				<g>
					<path style="fill:#188991;" d="M148.153,260.281c0,0-0.932,7.268,7.082,10.436c8.014,3.168,12.673,0.186,12.859-4.473
						c0.186-4.659-0.101-8.2-3.591-10.063C161.012,254.317,147.594,249.845,148.153,260.281z"/>
				</g>
			</g>
		</g>
	</g>
	<g>
		<g>
			<g>
				<g>
					<g>
						<path style="fill:#F7A806;" d="M220.647,152.445c0-6.05-4.95-11-11-11h-38.132c-6.05,0-11,4.95-11,11v13.036
							c0,6.05,4.95,11,11,11h37.403l10.735,5.218l-0.878-8.824c-0.166-0.216-0.344-0.4-0.527-0.569
							c1.496-1.88,2.399-4.25,2.399-6.825V152.445z"/>
					</g>
				</g>
			</g>
			<g>
				<g>
					<g>
						<path style="fill:#FFFFFF;" d="M204.62,154.8c0,1.338-1.085,2.423-2.423,2.423h-29.259c-1.338,0-2.423-1.085-2.423-2.423l0,0
							c0-1.338,1.085-2.423,2.423-2.423h29.259C203.535,152.378,204.62,153.462,204.62,154.8L204.62,154.8z"/>
					</g>
				</g>
				<g>
					<g>
						<path style="fill:#FFFFFF;" d="M194.743,165.609c0,1.235-1.001,2.236-2.236,2.236h-19.754c-1.235,0-2.236-1.001-2.236-2.236
							l0,0c0-1.235,1.001-2.236,2.236-2.236h19.754C193.742,163.373,194.743,164.374,194.743,165.609L194.743,165.609z"/>
					</g>
				</g>
			</g>
		</g>
		<g>
			<g>
				<g>
					<g>
						<g>
							<path style="fill:#1A8B91;" d="M454.144,48.513h-41.172c-4.94,0-8.945,4.005-8.945,8.945v10.188
								c0,4.94,4.005,8.945,8.945,8.945h16.97c1.091,2.033,2.987,5.191,4.927,6.647c1.165,1.351,0.771-1.458,0.773-2.889
								c0.002-1.232,0.695-2.937,2.758-3.758h15.744c4.941,0,8.945-4.005,8.945-8.945V57.458
								C463.089,52.518,459.085,48.513,454.144,48.513z"/>
						</g>
					</g>
				</g>
				<g>
					<g>
						<path style="fill:#FFFFFF;" d="M457.885,57.333c0,1.235-0.751,2.236-1.677,2.236h-44.54c-0.926,0-1.677-1.001-1.677-2.236l0,0
							c0-1.235,0.751-2.236,1.677-2.236h44.54C457.134,55.097,457.885,56.098,457.885,57.333L457.885,57.333z"/>
					</g>
				</g>
				<g>
					<g>
						<path style="fill:#FFFFFF;" d="M452.357,67.645c0,1.218-0.556,2.205-1.243,2.205h-39.881c-0.686,0-1.243-0.988-1.243-2.205
							l0,0c0-1.218,0.556-2.205,1.243-2.205h39.881C451.801,65.44,452.357,66.428,452.357,67.645L452.357,67.645z"/>
					</g>
				</g>
			</g>
			<g>
				<g>
					<g>
						<path style="fill:#F7A806;" d="M474.099,123.961l4.908-7.528c0,0-5.281-19.591,13.169-25.182
							c18.45-5.591,29.445,9.691,24.227,24.041c-5.218,14.35-27.209,17.332-36.154,7.082L474.099,123.961z"/>
					</g>
				</g>
				<g>
					<g>
						<g>
							<rect x="493.232" y="115.292" style="fill:#FFFFFF;" width="5.218" height="2.92"/>
						</g>
					</g>
					<g>
						<g>
							<path style="fill:#FFFFFF;" d="M493.605,113.242v-5.715c0,0,2.61-0.249,2.858-1.74c0.248-1.491-1.429-1.863-2.547-0.497
								l-3.106-2.05c0,0,2.299-6.709,8.511-5.156s4.287,7.703,3.293,9.008c-0.994,1.304-4.38,2.485-4.38,2.485l-0.092,3.665H493.605
								z"/>
						</g>
					</g>
				</g>
			</g>
		</g>
	</g>
	<g>
		<g>
			<g>
				<path style="fill:#B3DAC9;" d="M264.442,451.487c0,0,41.931-0.373,46.404-1.118c0,0,21.804-2.795,24.786-5.404
					c2.982-2.609-9.877-8.014-18.263-10.623c-8.386-2.609-50.318-5.588-74.358-3.819c-24.041,1.769-51.249,10.178-29.072,17.528
					c12.114,3.622,34.197,2.504,34.197,2.504L264.442,451.487z"/>
			</g>
		</g>
		<g>
			<g>
				<path style="fill:#0B4665;" d="M298.919,437.262l4.193,3.215c0,0,4.659,0.574,5.125,2.997s-2.609,4.473-12.952,4.566
					c-3.448,0.186-7.92-1.864-11.182-2.236c-3.261-0.373-6.989-1.398-6.523-12.952C279.91,423.626,295.658,436.641,298.919,437.262z
					"/>
			</g>
			<g>
				<path style="fill:#0B4665;" d="M240.592,432.46c0,0,1.767,10.735-4.523,12.691c-5.731,2.423-7.967,3.168-9.365,4.007
					s-11.182,0.582-13.791-1.107c-2.609-1.689-1.025-5.696,3.168-6.441l6.561-5.527C222.642,436.083,239.539,426.539,240.592,432.46
					z"/>
			</g>
			<g>
				<path style="fill:#F48F8F;" d="M251.708,350.418c0,0-8.511,67.245-8.697,70.413c-0.186,3.168-1.491,10.809-2.982,12.579
					c-1.491,1.77-5.405,5.374-11.834,7.066c-6.429,1.693-8.014-0.637-7.734-2.501c0,0,8.107-6.429,9.411-11.741
					c1.305-5.311,2.143-73.787,2.143-80.549C232.015,338.925,250.714,344.392,251.708,350.418z"/>
			</g>
			<g>
				<path style="fill:#F48F8F;" d="M280.531,346.69l11.182,83.987l7.206,6.584c0,0-2.329,6.212-13.511,1.366
					c-5.87-2.795-7.827-5.777-7.827-5.777s-14.816-76.967-17.425-81.626C257.547,346.566,278.917,344.206,280.531,346.69z"/>
			</g>
			<g>
				<path style="fill:#0B4665;" d="M275.599,273.885c0,0-0.721,7.827,1.329,15.654c2.05,7.827,11.927,54.231,11.927,54.231
					s-4.286,13.604-34.663,10.064c-26.465-3.085-31.623-9.318-31.623-9.318s1.619-18.236,3.39-30.084
					c1.77-11.848,5.684-27.316,5.87-38.311C232.015,265.126,273.524,259.535,275.599,273.885z"/>
			</g>
		</g>
		<g>
			<path style="fill:#074066;" d="M273.294,219.468c0,0-2.05-19.009-2.236-29.165c-0.186-10.157-13.325-25.252-29.631-13.232
				c0,0-3.199-1.833-2.267,2.889c0,0-5.342,1.118-8.2,15.157c-2.858,14.039-6.833,30.066-8.076,33.794
				C221.641,232.637,269.536,234.004,273.294,219.468z"/>
		</g>
		<g>
			<g>
				<path style="fill:#F48F8F;" d="M258.82,212.635v13.356l-12.331,1.305l0.17-17.323C246.66,209.972,258.82,205.926,258.82,212.635
					z"/>
			</g>
			<g>
				<path style="fill:#F48F8F;" d="M266.678,195.52c0,0-12.859,0.839-21.991-11.089c0,0-3.914,1.491-2.982,8.852
					c0,0-1.553,0.59-3.541-0.59c-1.988-1.18-4.41,0.746-3.354,4.038c1.056,3.292,4.1,2.547,4.1,2.547s1.77,15.251,14.257,15.81
					S266.585,200.738,266.678,195.52z"/>
			</g>
		</g>
		<g>
			<g>
				<path style="fill:#F48F8F;" d="M297.615,254.317c0,0,8.573-8.573,17.984-17.052c3.168-3.354,5.218-8.014,12.952-7.92
					c7.734,0.093,11.275,0,13.791-0.652c2.516-0.652,4.939-0.839,4.939,0.652c0,1.491-10.25,4.752-15.654,5.684
					c-0.839-0.093-1.677,0-1.677,0s-16.866,22.829-22.55,28.793c-5.684,5.964-10.623,5.684-14.629,0
					C288.762,258.138,297.615,254.317,297.615,254.317z"/>
			</g>
			<g>
				<path style="fill:#F48F8F;" d="M207.666,254.234c0,0-21.03-20.975-22.148-22.28c-1.118-1.305-7.734-1.584-10.157-1.584
					s-8.945,0.28-10.343,0c-1.398-0.279-4.659,2.795,3.168,4.939c7.827,2.143,11.741,2.516,15.282,8.2
					c3.541,5.684,17.798,26.929,23.202,28.606c5.404,1.677,8.759,1.025,11.834-4.007
					C221.579,263.076,207.666,254.234,207.666,254.234z"/>
			</g>
			<g>
				<path style="fill:#1A8B91;" d="M300.286,248.54l-3.727-2.36c0,0-0.048-0.07-0.12-0.174c-0.99,2.824-4.768,13.679-6.305,19.3
					l2.699,2.368C292.831,267.673,299.665,255.498,300.286,248.54z"/>
			</g>
			<g>
				<path style="fill:#FFFFFF;" d="M296.438,246.005c-1.416-2.044-16.097-23.173-20.441-26.631
					c-3.448-3.075-16.307,2.702-17.238,2.795c0,0-1.025,2.889-5.311,2.795c-4.286-0.093-6.895-2.889-6.895-2.889v-1.025
					c0,0-7.874-2.609-11.997-3.075c-4.123-0.466-7.571,3.541-10.553,7.361c-2.435,3.12-8.846,15.805-14.059,22.08
					c1.357,3.806,5.618,14.331,12.626,19.029c1.242-1.605,2.696-3.757,3.576-5.98c0,0,0.559,9.598,0.559,12.02
					s-1.77,6.989,11.554,7.92c13.325,0.932,32.8,3.354,39.415-6.616c1.771-5.602,0.466-19.009,0.466-19.009l11.993,10.522
					C291.67,259.684,295.448,248.829,296.438,246.005z"/>
			</g>
			<g>
				<path style="fill:#1A8B91;" d="M209.943,247.418c-1.171,1.409-2.281,2.498-3.273,3.079c0,0,2.889,15.375,13.325,20.22
					l0.28-1.584c0,0,1.038-1.062,2.294-2.686C215.561,261.749,211.3,251.224,209.943,247.418z"/>
			</g>
			<g>
				<path style="fill:#AFC1D1;" d="M278.139,255.283c-0.105,0-0.21-0.033-0.301-0.101l-4.802-3.628l-0.023-0.214
					c-1.984-18.102,3.087-26.566,3.304-26.918c0.144-0.235,0.452-0.309,0.687-0.163c0.235,0.145,0.309,0.453,0.164,0.688
					c-0.051,0.083-5.063,8.494-3.184,26.07l4.458,3.366c0.22,0.167,0.264,0.48,0.098,0.701
					C278.441,255.215,278.291,255.283,278.139,255.283z"/>
			</g>
			<g>
				<path style="fill:#AFC1D1;" d="M254.921,230.308c-2.521,0-6.97-0.487-9.242-3.654c-0.161-0.225-0.109-0.537,0.115-0.698
					c0.224-0.162,0.536-0.11,0.698,0.115c2.864,3.992,10.083,3.159,10.155,3.15c0.271-0.039,0.523,0.161,0.557,0.435
					c0.034,0.274-0.161,0.523-0.435,0.557C256.676,230.225,255.963,230.308,254.921,230.308z"/>
			</g>
			<g>
				<path style="fill:#AFC1D1;" d="M233.786,244.754c-0.026,0-0.054-0.002-0.081-0.006c-0.273-0.045-0.457-0.301-0.414-0.574
					c1.809-11.124-3.689-19.688-3.745-19.773c-0.151-0.231-0.086-0.541,0.145-0.692c0.232-0.153,0.541-0.087,0.692,0.144
					c0.236,0.361,5.77,8.961,3.896,20.481C234.239,244.579,234.027,244.754,233.786,244.754z"/>
			</g>
			<g>
				<path style="fill:#AFC1D1;" d="M225.958,261.712c-0.082,0-0.165-0.02-0.242-0.063c-0.242-0.135-0.329-0.438-0.194-0.681
					l2.795-5.031c0.134-0.241,0.439-0.326,0.68-0.194c0.242,0.135,0.329,0.439,0.194,0.681l-2.796,5.031
					C226.304,261.62,226.134,261.712,225.958,261.712z"/>
			</g>
			<g>
				<polygon style="fill:#074066;" points="281.26,213.468 288.855,216.859 291.728,212.759 281.681,211.827 				"/>
			</g>
			<g>
				<path style="fill:#074066;" d="M280.842,210.243c0.373,0,7.361-5.125,7.361-5.125l-2.951-4.038l-5.808,7.682L280.842,210.243z"
					/>
			</g>
			<g>
				<polygon style="fill:#074066;" points="218.948,216.859 220.647,216.859 216.734,206.795 212.541,210.243 				"/>
			</g>
			<g>
				<path style="fill:#074066;" d="M217.106,220.865l-8.479,3.261c0,0-2.702-1.584-1.398-5.218h9.877V220.865z"/>
			</g>
		</g>
	</g>
	<g>
		<g>
			<g>
				<path style="fill:#B3DAC9;" d="M509.134,432.851c0,0,7.641,0.872,7.641,3.511c0,2.639-11.741,6.366-49.572,6.739
					c-37.831,0.373-88.161,2.797-83.619-5.125c4.543-7.922,35.351-11.26,35.351-11.26s21.574,2.408,31.101,2.781
					C459.562,429.87,504.662,430.056,509.134,432.851z"/>
			</g>
		</g>
		<g>
			<g>
				<g>
					<g>
						<path style="fill:#0B4665;" d="M492.983,417.632c0,0,1.987,5.254,9.691,6.541c7.703,1.286,10.436,4.392,9.443,8.741
							c-0.994,2.113-8.99,2.982-17.043,3.106c-8.054,0.124-21.595,1.988-22.714-4.473c-0.249-1.615,1.366-14.536,1.366-14.536
							S490.001,411.668,492.983,417.632z"/>
					</g>
				</g>
				<g>
					<g>
						<path style="fill:#0B4665;" d="M426.017,423.471c0,0,0,8.573-1.118,11.554c-1.118,2.982-2.983,4.969-13.543,4.721
							c-10.56-0.248-21.742,0.869-25.345-1.243c-3.603-2.112-4.349-7.454,5.964-9.566c10.313-2.112,12.797-2.113,16.897-11.679
							C412.972,407.693,425.52,419.496,426.017,423.471z"/>
					</g>
				</g>
				<g>
					<g>
						<path style="fill:#0B4665;" d="M478.198,254.218c0,0,5.591,61.66,8.573,86.757c0.87,10.064,9.318,71.563,8.2,77.34
							c0,0-12.859,9.691-27.954,0.186c0,0-16.586-125.794-17.145-127.471c-0.559-1.677-2.609-7.641-3.541-0.373
							c-0.932,7.268-11.492,122.128-14.474,130.08c0,0-0.435,3.727-9.132,3.416c-8.696-0.31-18.699-2.795-19.754-2.485
							c0,0,5.563-69.015,8.031-126.912C413.469,236.861,411.729,208.958,478.198,254.218z"/>
					</g>
				</g>
			</g>
			<g>
				<g>
					<path style="fill:#F48F8F;" d="M514.477,249.782c0,0,2.733,1.242,5.094,5.591c2.361,4.349,3.075,6.212,4.1,6.492
						c0,0,0.219,3.727-4.596,2.143c0,0-0.715,3.168-5.933,5.032c-5.218,1.864-13.045,4.38-11.182-16.493
						C501.96,252.547,512.981,248.756,514.477,249.782z"/>
				</g>
			</g>
			<g>
				<g>
					<path style="fill:#F48F8F;" d="M410.549,136.444c0,0,6.802-8.479,10.995-11.275c4.193-2.795-2.516-3.634-4.286-2.05
						c0,0,0.186-3.261-5.218-5.684c-5.404-2.423-10.623-1.398-12.486,13.884C397.038,144.644,403.84,139.798,410.549,136.444z"/>
				</g>
			</g>
			<g>
				<g>
					<path style="fill:#1A8B91;" d="M479.607,245.611c0,0,1.491,7.082,0,9.815c-1.491,2.733-34.331,9.389-68.125,1.438
						c-2.734-1.118,0.001-9.566,0-13.169C411.481,240.092,477.868,242.504,479.607,245.611z"/>
				</g>
			</g>
			<g>
				<g>
					<path style="fill:#1A8B91;" d="M443.689,152.005c0,0,11.774-1.242,19.352-0.745c7.578,0.497,19.443,1.304,24.102,12.859
						c4.659,11.554,29.259,82.744,29.259,82.744s-2.795,10.623-16.213,6.336l-18.636-44.168c0,0,4.97,29.57-2.982,38.515
						c0,0-12.673,11.679-63.363,3.23c0,0-8.945-5.715-7.951-13.169c0.994-7.454,3.736-52.983,3.736-52.983
						s-17.9,9.002-25.355,10.741c-7.454,1.739-19.382-3.23-11.43-21.867c7.952-18.636,22.115-44.727,22.115-44.727
						s12.548,0.994,15.282,9.194L395.33,170.02c0,0,14.66-15.22,26.214-16.897C424.945,152.63,443.689,152.005,443.689,152.005z"/>
				</g>
			</g>
			<g>
				<g>
					<path style="fill:#106578;" d="M481.303,209.408c-0.364,0-0.684-0.266-0.74-0.637l-4.596-30.19
						c-0.063-0.409,0.219-0.792,0.628-0.855c0.423-0.059,0.792,0.22,0.854,0.629l4.596,30.19c0.063,0.409-0.219,0.792-0.628,0.855
						C481.379,209.406,481.34,209.408,481.303,209.408z"/>
				</g>
			</g>
			<g>
				<g>
					<path style="fill:#106578;" d="M444.004,164.678c-1.973,0-4.098-0.306-6.096-1.203c-3.025-1.358-5.215-3.835-6.507-7.362
						c-0.143-0.389,0.058-0.819,0.446-0.962c0.387-0.142,0.819,0.057,0.962,0.446c1.147,3.13,3.067,5.319,5.706,6.506
						c5.584,2.511,12.64-0.209,12.711-0.237c0.387-0.154,0.82,0.039,0.972,0.423c0.152,0.385-0.037,0.821-0.422,0.973
						C451.565,163.346,448.119,164.678,444.004,164.678z"/>
				</g>
			</g>
			<g>
				<g>
					<path style="fill:#106578;" d="M392.193,180.15c-0.294,0-0.574-0.174-0.693-0.464c-1.929-4.671,3.448-10.692,3.679-10.946
						c0.276-0.308,0.751-0.331,1.059-0.053c0.307,0.277,0.331,0.752,0.054,1.059c-0.05,0.055-4.973,5.571-3.404,9.368
						c0.158,0.383-0.024,0.821-0.407,0.979C392.385,180.132,392.289,180.15,392.193,180.15z"/>
				</g>
			</g>
			<g>
				<g>
					<path style="fill:#106578;" d="M469.812,258.888c-0.414,0-0.75-0.336-0.75-0.75v-6.851c0-0.414,0.336-0.75,0.75-0.75
						c0.414,0,0.75,0.336,0.75,0.75v6.851C470.562,258.552,470.226,258.888,469.812,258.888z"/>
				</g>
			</g>
			<g>
				<g>
					<path style="fill:#106578;" d="M456.084,260.596c-0.395,0-0.725-0.309-0.748-0.707l-0.373-6.523
						c-0.023-0.414,0.293-0.768,0.706-0.792c0.409-0.037,0.768,0.292,0.792,0.706l0.373,6.522c0.023,0.414-0.293,0.769-0.706,0.792
						C456.113,260.596,456.098,260.596,456.084,260.596z"/>
				</g>
			</g>
			<g>
				<g>
					<path style="fill:#106578;" d="M442.51,260.597c-0.414,0-0.75-0.336-0.75-0.75v-6.512c0-0.414,0.336-0.75,0.75-0.75
						c0.414,0,0.75,0.336,0.75,0.75v6.512C443.26,260.261,442.924,260.597,442.51,260.597z"/>
				</g>
			</g>
			<g>
				<g>
					<path style="fill:#106578;" d="M429.746,260.099c-0.414,0-0.75-0.336-0.75-0.75v-6.771c0-0.414,0.336-0.75,0.75-0.75
						c0.414,0,0.75,0.336,0.75,0.75v6.771C430.496,259.763,430.16,260.099,429.746,260.099z"/>
				</g>
			</g>
			<g>
				<g>
					<path style="fill:#106578;" d="M416.885,258.236c-0.414,0-0.75-0.336-0.75-0.75v-6.11c0-0.414,0.336-0.75,0.75-0.75
						c0.414,0,0.75,0.336,0.75,0.75v6.11C417.635,257.9,417.299,258.236,416.885,258.236z"/>
				</g>
			</g>
			<g>
				<g>
					<path style="fill:#106578;" d="M450.903,254.085c-0.585,0-1.178-0.004-1.786-0.012c-25.787-0.339-37.028-2.096-38.8-6.066
						c-0.169-0.378,0.001-0.822,0.379-0.991c0.378-0.167,0.821,0.001,0.99,0.379c2.104,4.714,28.708,5.064,37.45,5.178
						c22.855,0.309,28.459-5.326,28.513-5.382c0.284-0.299,0.758-0.316,1.058-0.037c0.302,0.28,0.323,0.748,0.047,1.052
						C478.529,248.452,473.132,254.085,450.903,254.085z"/>
				</g>
			</g>
			<g>
				<g>
					<path style="fill:#CE6161;" d="M520.21,264.663c-0.084,0-0.168-0.02-0.246-0.064c-2.641-1.491-4.396-6.703-4.47-6.925
						c-0.039-0.211-0.255-1.29-2.008-1.391c-0.266-0.016-0.481,0.1-0.621,0.353c-0.398,0.722-0.39,2.907,2.176,6.522
						c0.159,0.225,0.106,0.537-0.119,0.697c-0.225,0.157-0.537,0.106-0.697-0.119c-2.664-3.754-2.9-6.38-2.234-7.585
						c0.326-0.589,0.9-0.903,1.553-0.867c2.112,0.121,2.835,1.472,2.922,2.17c0-0.001,0-0.001,0-0.001
						c0.011,0,1.696,4.978,3.991,6.273c0.24,0.136,0.325,0.44,0.19,0.682C520.553,264.572,520.383,264.663,520.21,264.663z"/>
				</g>
			</g>
			<g>
				<g>
					<path style="fill:#CE6161;" d="M503.911,268.855c-0.196,0-0.383-0.116-0.462-0.31c-0.238-0.577-2.287-5.696-0.919-7.741
						c0.263-0.393,0.777-0.861,1.736-0.861c1.245,0,1.741,1.472,2.069,2.444c0.049,0.146,0.096,0.284,0.142,0.408
						c0.095,0.26-0.038,0.547-0.297,0.643c-0.26,0.093-0.546-0.037-0.643-0.297c-0.048-0.133-0.098-0.279-0.15-0.435
						c-0.236-0.702-0.594-1.764-1.121-1.764c-0.562,0-0.785,0.238-0.905,0.417c-0.809,1.208,0.191,4.814,1.012,6.805
						c0.105,0.255-0.016,0.547-0.271,0.652C504.039,268.843,503.974,268.855,503.911,268.855z"/>
				</g>
			</g>
			<g>
				<g>
					<path style="fill:#CE6161;" d="M507.387,266.908c-0.19,0-0.372-0.109-0.456-0.294c-0.77-1.707-3.135-7.367-1.184-8.554
						c0.576-0.351,1.138-0.425,1.666-0.229c0.794,0.295,1.412,1.156,1.89,2.632c0.085,0.263-0.059,0.545-0.321,0.63
						c-0.268,0.087-0.545-0.06-0.63-0.321c-0.488-1.508-1.016-1.902-1.287-2.003c-0.237-0.09-0.489-0.043-0.798,0.145
						c-0.805,0.49,0.165,4.164,1.576,7.288c0.113,0.252,0.001,0.548-0.25,0.662C507.526,266.893,507.457,266.908,507.387,266.908z"
						/>
				</g>
			</g>
			<g>
				<g>
					<path style="fill:#CE6161;" d="M510.695,265.347c-0.174,0-0.343-0.091-0.435-0.253c-0.32-0.563-3.1-5.571-2.247-8.119
						c0.204-0.611,0.594-1.045,1.158-1.289c0.783-0.233,1.444-0.156,2.023,0.207c1.298,0.816,1.64,2.824,1.653,2.909
						c0.045,0.272-0.14,0.529-0.412,0.574c-0.266,0.038-0.528-0.14-0.574-0.411c-0.076-0.458-0.441-1.751-1.201-2.228
						c-0.329-0.205-0.703-0.242-1.149-0.113c-0.242,0.109-0.435,0.328-0.549,0.667c-0.603,1.802,1.36,5.887,2.168,7.309
						c0.137,0.24,0.053,0.545-0.188,0.682C510.864,265.327,510.779,265.347,510.695,265.347z"/>
				</g>
			</g>
			<g>
				<g>
					<path style="fill:#CE6161;" d="M411.921,129.267c-0.415,0-0.796-0.132-1.102-0.396c-0.641-0.553-0.761-1.504-0.315-2.481
						c0.75-1.639,2.287-4.163,2.353-4.269c0.143-0.237,0.45-0.31,0.688-0.166c0.235,0.144,0.31,0.452,0.166,0.687
						c-0.016,0.026-1.571,2.58-2.296,4.165c-0.251,0.547-0.228,1.061,0.059,1.308c0.287,0.248,0.792,0.191,1.32-0.151
						c1.221-0.79,3.329-3.954,4.039-5.107c0.145-0.236,0.456-0.308,0.688-0.164c0.235,0.145,0.309,0.453,0.164,0.688
						c-0.109,0.177-2.688,4.348-4.348,5.422C412.86,129.112,412.37,129.267,411.921,129.267z"/>
				</g>
			</g>
			<g>
				<g>
					<path style="fill:#CE6161;" d="M408.321,128.262c-0.463,0-0.916-0.132-1.354-0.396c-0.341-0.205-0.545-0.571-0.608-1.086
						c-0.216-1.77,1.338-5.504,2.969-7.135c0.195-0.195,0.512-0.195,0.707,0c0.195,0.195,0.195,0.512,0,0.707
						c-1.38,1.381-2.859,4.858-2.683,6.307c0.026,0.217,0.087,0.325,0.131,0.351c0.405,0.244,0.808,0.311,1.228,0.201
						c1.195-0.308,2.11-1.874,2.119-1.89c0.138-0.239,0.442-0.323,0.683-0.184c0.239,0.137,0.322,0.442,0.185,0.682
						c-0.045,0.079-1.129,1.943-2.732,2.36C408.748,128.233,408.534,128.262,408.321,128.262z"/>
				</g>
			</g>
			<g>
				<g>
					<path style="fill:#CE6161;" d="M406.144,126.072c-0.579,0-1.378-0.108-1.887-0.627c-0.278-0.284-0.575-0.807-0.41-1.684
						c0.423-2.241,2.439-4.773,2.524-4.88c0.174-0.215,0.488-0.249,0.702-0.077c0.216,0.173,0.25,0.487,0.077,0.703
						c-0.019,0.024-1.945,2.445-2.321,4.439c-0.102,0.547,0.081,0.736,0.142,0.798c0.389,0.399,1.391,0.34,1.709,0.288
						c0.27-0.045,0.528,0.139,0.574,0.412c0.045,0.272-0.139,0.529-0.411,0.574C406.775,126.03,406.502,126.072,406.144,126.072z"/>
				</g>
			</g>
			<g>
				<g>
					<path style="fill:#CE6161;" d="M403.058,123.977c-0.39,0-0.775-0.1-1.063-0.396c-0.734-0.759-0.417-2.345,1-4.991
						c0.131-0.244,0.435-0.334,0.677-0.205c0.243,0.13,0.335,0.434,0.204,0.677c-1.682,3.143-1.221,3.763-1.162,3.823
						c0.216,0.225,1.021,0.016,1.492-0.214c0.249-0.122,0.547-0.02,0.669,0.229c0.122,0.248,0.021,0.546-0.227,0.669
						C404.528,123.627,403.788,123.977,403.058,123.977z"/>
				</g>
			</g>
			<g>
				<g>
					<path style="fill:#106578;" d="M410.995,185.374c-0.233,0-0.463-0.108-0.609-0.311c-0.242-0.336-0.166-0.805,0.17-1.047
						l3.718-2.677c0.338-0.242,0.806-0.165,1.047,0.17c0.242,0.336,0.166,0.805-0.17,1.047l-3.718,2.677
						C411.299,185.328,411.146,185.374,410.995,185.374z"/>
				</g>
			</g>
		</g>
		<g>
			<g>
				<g>
					<path style="fill:#F48F8F;" d="M450.617,142.252v9.442c0,0,1.988,2.671,0,4.783c-1.988,2.112-9.443,2.982-13.045-0.497
						c-2.609-2.671-1.429-4.1-1.429-4.1v-9.939C436.143,141.941,449.562,140.702,450.617,142.252z"/>
				</g>
			</g>
			<g>
				<g>
					<path style="fill:#F48F8F;" d="M459.562,113.521c0,0,0.932,13.045,0,19.009c-0.932,5.964-2.236,12.393-16.307,12.393
						c-14.07,0-14.816-4.566-17.611-16.773c0,0-4.473,1.584-5.311-3.634c-1.125-7.003,4.069-6.554,4.069-6.554
						s3.571-12.549,6.926-13.667c3.354-1.118,12.766-1.584,13.697-1.118C445.958,103.644,459.562,113.521,459.562,113.521z"/>
				</g>
			</g>
			<g>
				<g>
					<path style="fill:#074066;" d="M464.532,108.148c0,0,1.366,9.07-10.436,5.964c-11.803-3.106-1.987-10.561-22.239-7.827
						c-3.106,0.87-2.112,5.218-2.112,7.206s-0.994,7.33-7.952,5.218c0,0-1.62-2.438-2.236-3.603
						c-0.536-1.013-4.349-11.679,8.448-13.667c0,0-0.777-2.547,0.248-2.826c1.025-0.279,1.957,2.796,1.957,2.796
						s2.206-9.349,17.984-7.361C455.898,94.978,456.768,108.583,464.532,108.148z"/>
				</g>
			</g>
		</g>
	</g>
</g>
</svg>
